<svg xmlns="http://www.w3.org/2000/svg" xmlns:xlink="http://www.w3.org/1999/xlink" width="100" zoomAndPan="magnify" viewBox="0 0 75 33.749998" height="45" preserveAspectRatio="xMidYMid meet" version="1.0"><defs><g/><clipPath id="71443fc69f"><path d="M 0.277344 0 L 74.722656 0 L 74.722656 33.5 L 0.277344 33.5 Z M 0.277344 0 " clip-rule="nonzero"/></clipPath><clipPath id="0a037da366"><rect x="0" width="23" y="0" height="31"/></clipPath><clipPath id="24f9496e3b"><path d="M 24.609375 0.910156 L 28.457031 0.910156 L 28.457031 4.425781 L 24.609375 4.425781 Z M 24.609375 0.910156 " clip-rule="nonzero"/></clipPath><clipPath id="060df0faf0"><path d="M 0.609375 0.910156 L 4.457031 0.910156 L 4.457031 4.425781 L 0.609375 4.425781 Z M 0.609375 0.910156 " clip-rule="nonzero"/></clipPath><clipPath id="ab6635bc5a"><rect x="0" width="5" y="0" height="5"/></clipPath><clipPath id="fac34b8546"><path d="M 0.515625 0 L 24 0 L 24 31 L 0.515625 31 Z M 0.515625 0 " clip-rule="nonzero"/></clipPath><clipPath id="a64853d242"><rect x="0" width="24" y="0" height="31"/></clipPath><clipPath id="e16182c627"><path d="M 51 0 L 74.367188 0 L 74.367188 31 L 51 31 Z M 51 0 " clip-rule="nonzero"/></clipPath><clipPath id="bba03fd046"><rect x="0" width="24" y="0" height="31"/></clipPath><clipPath id="369f2bae00"><rect x="0" width="75" y="0" height="34"/></clipPath></defs><g clip-path="url(#71443fc69f)"><g transform="matrix(1, 0, 0, 1, 0, -0.000000000000001048)"><g clip-path="url(#369f2bae00)"><g transform="matrix(1, 0, 0, 1, 30, -0.000000000000001048)"><g clip-path="url(#0a037da366)"><g fill="#eff6ff" fill-opacity="1"><g transform="translate(0.171589, 24.840479)"><g><path d="M 21.125 -20.125 L 21.125 -16.09375 L 5.03125 -16.09375 L 5.03125 -12.078125 L 21.125 -12.078125 L 21.125 -8.046875 L 5.03125 -8.046875 L 5.03125 -4.03125 L 21.125 -4.03125 L 21.125 0 L 5.03125 0 C 4.289062 0 3.613281 -0.175781 3 -0.53125 C 2.394531 -0.894531 1.910156 -1.382812 1.546875 -2 C 1.179688 -2.613281 1 -3.289062 1 -4.03125 L 1 -16.09375 C 1 -16.832031 1.179688 -17.507812 1.546875 -18.125 C 1.910156 -18.738281 2.394531 -19.222656 3 -19.578125 C 3.613281 -19.941406 4.289062 -20.125 5.03125 -20.125 Z M 21.125 -20.125 "/></g></g></g></g></g><g clip-path="url(#24f9496e3b)"><g transform="matrix(1, 0, 0, 1, 24, -0.000000000000000999)"><g clip-path="url(#ab6635bc5a)"><g clip-path="url(#060df0faf0)"><path fill="#eff6ff" d="M 0.609375 0.910156 L 4.449219 0.910156 L 4.449219 4.425781 L 0.609375 4.425781 Z M 0.609375 0.910156 " fill-opacity="1" fill-rule="nonzero"/></g></g></g></g><g clip-path="url(#fac34b8546)"><g transform="matrix(1, 0, 0, 1, 0, -0.000000000000001048)"><g clip-path="url(#a64853d242)"><g fill="#eff6ff" fill-opacity="1"><g transform="translate(0.751552, 24.840479)"><g><path d="M 21.125 -20.125 L 21.125 -16.09375 L 5.03125 -16.09375 L 5.03125 -12.078125 L 17.109375 -12.078125 C 17.847656 -12.078125 18.519531 -11.894531 19.125 -11.53125 C 19.738281 -11.175781 20.222656 -10.691406 20.578125 -10.078125 C 20.941406 -9.460938 21.125 -8.785156 21.125 -8.046875 L 21.125 -4.03125 C 21.125 -3.289062 20.941406 -2.613281 20.578125 -2 C 20.222656 -1.382812 19.738281 -0.894531 19.125 -0.53125 C 18.519531 -0.175781 17.847656 0 17.109375 0 L 1 0 L 1 -4.03125 L 17.109375 -4.03125 L 17.109375 -8.046875 L 5.03125 -8.046875 C 4.289062 -8.046875 3.613281 -8.222656 3 -8.578125 C 2.394531 -8.941406 1.910156 -9.429688 1.546875 -10.046875 C 1.179688 -10.660156 1 -11.335938 1 -12.078125 L 1 -16.09375 C 1 -16.832031 1.179688 -17.507812 1.546875 -18.125 C 1.910156 -18.738281 2.394531 -19.222656 3 -19.578125 C 3.613281 -19.941406 4.289062 -20.125 5.03125 -20.125 Z M 21.125 -20.125 "/></g></g></g></g></g></g><g clip-path="url(#e16182c627)"><g transform="matrix(1, 0, 0, 1, 51, -0.000000000000001048)"><g clip-path="url(#bba03fd046)"><g fill="#eff6ff" fill-opacity="1"><g transform="translate(1.108004, 24.840479)"><g><path d="M 21.125 -20.125 L 21.125 -16.09375 L 5.03125 -16.09375 L 5.03125 -4.03125 L 17.109375 -4.03125 L 17.109375 -8.046875 L 9.0625 -8.046875 L 9.0625 -12.078125 L 21.125 -12.078125 L 21.125 -4.03125 C 21.125 -3.300781 20.941406 -2.628906 20.578125 -2.015625 C 20.222656 -1.410156 19.742188 -0.921875 19.140625 -0.546875 C 18.535156 -0.179688 17.859375 0 17.109375 0 L 5.03125 0 C 4.289062 0 3.613281 -0.175781 3 -0.53125 C 2.394531 -0.894531 1.910156 -1.382812 1.546875 -2 C 1.179688 -2.613281 1 -3.289062 1 -4.03125 L 1 -16.09375 C 1 -16.832031 1.179688 -17.507812 1.546875 -18.125 C 1.910156 -18.738281 2.394531 -19.222656 3 -19.578125 C 3.613281 -19.941406 4.289062 -20.125 5.03125 -20.125 Z M 21.125 -20.125 "/></g></g></g></g></g></g><g fill="#eff6ff" fill-opacity="1"><g transform="translate(23.775738, 24.395646)"><g><path d="M 4.855469 0 L 4.855469 -16.777344 L 0.652344 -16.777344 L 0.652344 0 Z M 4.855469 0 "/></g></g></g><g fill="#eff6ff" fill-opacity="1"><g transform="translate(33.805907, 32.055815)"><g><path d="M 5.171875 0 L 5.171875 -3.03125 L 4.984375 -2.703125 L 3.375 0 L 3.03125 0 L 1.4375 -2.703125 L 1.25 -3.03125 L 1.25 0 L 0.546875 0 L 0.546875 -3.828125 L 1.546875 -3.828125 L 3.234375 -0.875 L 3.40625 -1.203125 L 4.90625 -3.828125 L 5.890625 -3.828125 L 5.890625 0 Z M 5.171875 0 "/></g></g></g><g fill="#eff6ff" fill-opacity="1"><g transform="translate(40.176096, 32.055815)"><g><path d="M 3.40625 0.046875 C 3.3125 0.046875 3.226562 0.0351562 3.15625 0.015625 C 3.082031 0.00390625 3.015625 -0.0195312 2.953125 -0.0625 C 2.890625 -0.101562 2.84375 -0.15625 2.8125 -0.21875 C 2.78125 -0.289062 2.769531 -0.382812 2.78125 -0.5 C 2.625 -0.320312 2.429688 -0.1875 2.203125 -0.09375 C 1.972656 0 1.726562 0.046875 1.46875 0.046875 C 1.289062 0.046875 1.128906 0.03125 0.984375 0 C 0.847656 -0.0390625 0.726562 -0.09375 0.625 -0.15625 C 0.53125 -0.226562 0.453125 -0.3125 0.390625 -0.40625 C 0.335938 -0.507812 0.3125 -0.628906 0.3125 -0.765625 L 0.3125 -0.78125 C 0.3125 -0.957031 0.367188 -1.109375 0.484375 -1.234375 C 0.609375 -1.359375 0.773438 -1.453125 0.984375 -1.515625 C 1.191406 -1.578125 1.4375 -1.609375 1.71875 -1.609375 C 2 -1.609375 2.296875 -1.566406 2.609375 -1.484375 L 2.609375 -1.65625 C 2.609375 -1.851562 2.539062 -2.003906 2.40625 -2.109375 C 2.28125 -2.222656 2.082031 -2.28125 1.8125 -2.28125 C 1.625 -2.28125 1.445312 -2.25 1.28125 -2.1875 C 1.125 -2.132812 0.96875 -2.054688 0.8125 -1.953125 L 0.53125 -2.34375 C 0.71875 -2.476562 0.914062 -2.582031 1.125 -2.65625 C 1.332031 -2.738281 1.566406 -2.78125 1.828125 -2.78125 C 2.085938 -2.78125 2.304688 -2.75 2.484375 -2.6875 C 2.671875 -2.625 2.820312 -2.535156 2.9375 -2.421875 C 3.050781 -2.316406 3.132812 -2.1875 3.1875 -2.03125 C 3.238281 -1.882812 3.265625 -1.710938 3.265625 -1.515625 L 3.265625 -0.65625 C 3.265625 -0.550781 3.289062 -0.484375 3.34375 -0.453125 C 3.394531 -0.421875 3.5 -0.40625 3.65625 -0.40625 L 3.65625 0.046875 Z M 2.609375 -1.09375 C 2.347656 -1.164062 2.148438 -1.203125 2.015625 -1.203125 C 1.878906 -1.210938 1.78125 -1.21875 1.71875 -1.21875 C 1.601562 -1.21875 1.488281 -1.207031 1.375 -1.1875 C 1.257812 -1.164062 1.164062 -1.117188 1.09375 -1.046875 C 1.019531 -0.972656 0.984375 -0.890625 0.984375 -0.796875 L 0.984375 -0.78125 C 0.984375 -0.675781 1.039062 -0.59375 1.15625 -0.53125 C 1.269531 -0.46875 1.414062 -0.4375 1.59375 -0.4375 C 1.707031 -0.4375 1.820312 -0.445312 1.9375 -0.46875 C 2.0625 -0.5 2.171875 -0.539062 2.265625 -0.59375 C 2.367188 -0.65625 2.453125 -0.722656 2.515625 -0.796875 C 2.578125 -0.878906 2.609375 -0.960938 2.609375 -1.046875 Z M 2.609375 -1.09375 "/></g></g></g><g fill="#eff6ff" fill-opacity="1"><g transform="translate(43.94997, 32.055815)"><g><path d="M 2.484375 -2.125 C 2.265625 -2.15625 2.070312 -2.160156 1.90625 -2.140625 C 1.75 -2.128906 1.617188 -2.09375 1.515625 -2.03125 C 1.410156 -1.976562 1.332031 -1.90625 1.28125 -1.8125 C 1.226562 -1.726562 1.203125 -1.632812 1.203125 -1.53125 L 1.203125 0 L 0.515625 0 L 0.515625 -2.6875 L 1.140625 -2.6875 L 1.140625 -2 C 1.210938 -2.144531 1.285156 -2.265625 1.359375 -2.359375 C 1.441406 -2.460938 1.535156 -2.539062 1.640625 -2.59375 C 1.742188 -2.644531 1.863281 -2.675781 2 -2.6875 C 2.132812 -2.707031 2.296875 -2.710938 2.484375 -2.703125 Z M 2.484375 -2.125 "/></g></g></g><g fill="#eff6ff" fill-opacity="1"><g transform="translate(46.580767, 32.055815)"><g><path d="M 2.78125 0 L 1.8125 -1.21875 L 1.109375 -0.578125 L 1.109375 0 L 0.453125 0 L 0.453125 -3.828125 L 1.109375 -3.828125 L 1.109375 -1.21875 L 2.65625 -2.6875 L 3.4375 -2.6875 L 2.21875 -1.5625 L 3.515625 0 Z M 2.78125 0 "/></g></g></g><g fill="#eff6ff" fill-opacity="1"><g transform="translate(50.170821, 32.055815)"><g><path d="M 0.953125 -1.25 L 0.953125 -1.234375 C 0.953125 -1.117188 0.976562 -1.007812 1.03125 -0.90625 C 1.082031 -0.8125 1.15625 -0.726562 1.25 -0.65625 C 1.34375 -0.582031 1.453125 -0.523438 1.578125 -0.484375 C 1.710938 -0.441406 1.851562 -0.421875 2 -0.421875 C 2.125 -0.421875 2.234375 -0.425781 2.328125 -0.4375 C 2.429688 -0.457031 2.523438 -0.484375 2.609375 -0.515625 C 2.691406 -0.546875 2.769531 -0.585938 2.84375 -0.640625 C 2.925781 -0.691406 3.007812 -0.75 3.09375 -0.8125 L 3.4375 -0.5 C 3.238281 -0.3125 3.023438 -0.171875 2.796875 -0.078125 C 2.566406 0.00390625 2.28125 0.046875 1.9375 0.046875 C 1.707031 0.046875 1.492188 0.015625 1.296875 -0.046875 C 1.097656 -0.117188 0.921875 -0.210938 0.765625 -0.328125 C 0.617188 -0.441406 0.503906 -0.582031 0.421875 -0.75 C 0.335938 -0.914062 0.296875 -1.101562 0.296875 -1.3125 L 0.296875 -1.359375 C 0.296875 -1.546875 0.332031 -1.722656 0.40625 -1.890625 C 0.476562 -2.066406 0.582031 -2.21875 0.71875 -2.34375 C 0.863281 -2.476562 1.035156 -2.582031 1.234375 -2.65625 C 1.429688 -2.738281 1.648438 -2.78125 1.890625 -2.78125 C 2.148438 -2.78125 2.378906 -2.738281 2.578125 -2.65625 C 2.773438 -2.582031 2.941406 -2.476562 3.078125 -2.34375 C 3.222656 -2.21875 3.332031 -2.066406 3.40625 -1.890625 C 3.476562 -1.722656 3.515625 -1.539062 3.515625 -1.34375 L 3.515625 -1.25 Z M 2.859375 -1.625 C 2.859375 -1.695312 2.832031 -1.773438 2.78125 -1.859375 C 2.738281 -1.941406 2.675781 -2.015625 2.59375 -2.078125 C 2.507812 -2.148438 2.40625 -2.207031 2.28125 -2.25 C 2.164062 -2.289062 2.039062 -2.3125 1.90625 -2.3125 C 1.769531 -2.3125 1.644531 -2.289062 1.53125 -2.25 C 1.414062 -2.21875 1.316406 -2.164062 1.234375 -2.09375 C 1.148438 -2.03125 1.085938 -1.957031 1.046875 -1.875 C 1.003906 -1.800781 0.984375 -1.71875 0.984375 -1.625 L 0.984375 -1.609375 L 2.859375 -1.609375 Z M 2.859375 -1.625 "/></g></g></g><g fill="#eff6ff" fill-opacity="1"><g transform="translate(53.956183, 32.055815)"><g><path d="M 1.484375 -2.25 L 1.484375 -0.828125 C 1.484375 -0.671875 1.519531 -0.519531 1.59375 -0.375 C 1.664062 -0.226562 1.765625 -0.101562 1.890625 0 L 1.09375 0 C 0.988281 -0.0820312 0.910156 -0.195312 0.859375 -0.34375 C 0.816406 -0.488281 0.796875 -0.648438 0.796875 -0.828125 L 0.796875 -2.25 L 0.21875 -2.25 L 0.21875 -2.6875 L 0.796875 -2.6875 L 0.796875 -3.15625 L 1.484375 -3.390625 L 1.484375 -2.6875 L 2.203125 -2.6875 L 2.203125 -2.25 Z M 1.484375 -2.25 "/></g></g></g><g fill="#eff6ff" fill-opacity="1"><g transform="translate(56.37445, 32.055815)"><g><path d="M 3.765625 -1.34375 C 3.765625 -1.15625 3.722656 -0.976562 3.640625 -0.8125 C 3.566406 -0.644531 3.460938 -0.5 3.328125 -0.375 C 3.203125 -0.25 3.050781 -0.144531 2.875 -0.0625 C 2.695312 0.0078125 2.507812 0.046875 2.3125 0.046875 C 2.0625 0.046875 1.84375 0.0078125 1.65625 -0.0625 C 1.46875 -0.144531 1.304688 -0.265625 1.171875 -0.421875 L 1.171875 0.828125 L 0.515625 0.828125 L 0.515625 -2.6875 L 0.984375 -2.6875 L 1.09375 -2.09375 C 1.132812 -2.1875 1.195312 -2.273438 1.28125 -2.359375 C 1.363281 -2.441406 1.460938 -2.515625 1.578125 -2.578125 C 1.691406 -2.640625 1.8125 -2.6875 1.9375 -2.71875 C 2.070312 -2.757812 2.207031 -2.78125 2.34375 -2.78125 C 2.550781 -2.78125 2.742188 -2.738281 2.921875 -2.65625 C 3.097656 -2.582031 3.25 -2.484375 3.375 -2.359375 C 3.5 -2.234375 3.59375 -2.085938 3.65625 -1.921875 C 3.726562 -1.753906 3.765625 -1.578125 3.765625 -1.390625 Z M 3.09375 -1.40625 C 3.09375 -1.675781 3.003906 -1.894531 2.828125 -2.0625 C 2.660156 -2.226562 2.4375 -2.3125 2.15625 -2.3125 C 2.019531 -2.3125 1.894531 -2.285156 1.78125 -2.234375 C 1.664062 -2.191406 1.5625 -2.128906 1.46875 -2.046875 C 1.382812 -1.960938 1.316406 -1.859375 1.265625 -1.734375 C 1.222656 -1.617188 1.203125 -1.492188 1.203125 -1.359375 L 1.203125 -1.296875 C 1.203125 -1.148438 1.226562 -1.019531 1.28125 -0.90625 C 1.34375 -0.800781 1.421875 -0.710938 1.515625 -0.640625 C 1.609375 -0.566406 1.707031 -0.507812 1.8125 -0.46875 C 1.925781 -0.4375 2.039062 -0.421875 2.15625 -0.421875 C 2.4375 -0.421875 2.660156 -0.5 2.828125 -0.65625 C 3.003906 -0.820312 3.09375 -1.046875 3.09375 -1.328125 Z M 3.09375 -1.40625 "/></g></g></g><g fill="#eff6ff" fill-opacity="1"><g transform="translate(60.435529, 32.055815)"><g><path d="M 0.515625 0 L 0.515625 -3.828125 L 1.171875 -3.828125 L 1.171875 0 Z M 0.515625 0 "/></g></g></g><g fill="#eff6ff" fill-opacity="1"><g transform="translate(62.124295, 32.055815)"><g><path d="M 3.40625 0.046875 C 3.3125 0.046875 3.226562 0.0351562 3.15625 0.015625 C 3.082031 0.00390625 3.015625 -0.0195312 2.953125 -0.0625 C 2.890625 -0.101562 2.84375 -0.15625 2.8125 -0.21875 C 2.78125 -0.289062 2.769531 -0.382812 2.78125 -0.5 C 2.625 -0.320312 2.429688 -0.1875 2.203125 -0.09375 C 1.972656 0 1.726562 0.046875 1.46875 0.046875 C 1.289062 0.046875 1.128906 0.03125 0.984375 0 C 0.847656 -0.0390625 0.726562 -0.09375 0.625 -0.15625 C 0.53125 -0.226562 0.453125 -0.3125 0.390625 -0.40625 C 0.335938 -0.507812 0.3125 -0.628906 0.3125 -0.765625 L 0.3125 -0.78125 C 0.3125 -0.957031 0.367188 -1.109375 0.484375 -1.234375 C 0.609375 -1.359375 0.773438 -1.453125 0.984375 -1.515625 C 1.191406 -1.578125 1.4375 -1.609375 1.71875 -1.609375 C 2 -1.609375 2.296875 -1.566406 2.609375 -1.484375 L 2.609375 -1.65625 C 2.609375 -1.851562 2.539062 -2.003906 2.40625 -2.109375 C 2.28125 -2.222656 2.082031 -2.28125 1.8125 -2.28125 C 1.625 -2.28125 1.445312 -2.25 1.28125 -2.1875 C 1.125 -2.132812 0.96875 -2.054688 0.8125 -1.953125 L 0.53125 -2.34375 C 0.71875 -2.476562 0.914062 -2.582031 1.125 -2.65625 C 1.332031 -2.738281 1.566406 -2.78125 1.828125 -2.78125 C 2.085938 -2.78125 2.304688 -2.75 2.484375 -2.6875 C 2.671875 -2.625 2.820312 -2.535156 2.9375 -2.421875 C 3.050781 -2.316406 3.132812 -2.1875 3.1875 -2.03125 C 3.238281 -1.882812 3.265625 -1.710938 3.265625 -1.515625 L 3.265625 -0.65625 C 3.265625 -0.550781 3.289062 -0.484375 3.34375 -0.453125 C 3.394531 -0.421875 3.5 -0.40625 3.65625 -0.40625 L 3.65625 0.046875 Z M 2.609375 -1.09375 C 2.347656 -1.164062 2.148438 -1.203125 2.015625 -1.203125 C 1.878906 -1.210938 1.78125 -1.21875 1.71875 -1.21875 C 1.601562 -1.21875 1.488281 -1.207031 1.375 -1.1875 C 1.257812 -1.164062 1.164062 -1.117188 1.09375 -1.046875 C 1.019531 -0.972656 0.984375 -0.890625 0.984375 -0.796875 L 0.984375 -0.78125 C 0.984375 -0.675781 1.039062 -0.59375 1.15625 -0.53125 C 1.269531 -0.46875 1.414062 -0.4375 1.59375 -0.4375 C 1.707031 -0.4375 1.820312 -0.445312 1.9375 -0.46875 C 2.0625 -0.5 2.171875 -0.539062 2.265625 -0.59375 C 2.367188 -0.65625 2.453125 -0.722656 2.515625 -0.796875 C 2.578125 -0.878906 2.609375 -0.960938 2.609375 -1.046875 Z M 2.609375 -1.09375 "/></g></g></g><g fill="#eff6ff" fill-opacity="1"><g transform="translate(65.898169, 32.055815)"><g><path d="M 3.375 -0.46875 C 3.175781 -0.289062 2.960938 -0.160156 2.734375 -0.078125 C 2.515625 0.00390625 2.257812 0.046875 1.96875 0.046875 C 1.738281 0.046875 1.519531 0.015625 1.3125 -0.046875 C 1.101562 -0.117188 0.921875 -0.210938 0.765625 -0.328125 C 0.617188 -0.441406 0.503906 -0.582031 0.421875 -0.75 C 0.335938 -0.914062 0.296875 -1.101562 0.296875 -1.3125 L 0.296875 -1.359375 C 0.296875 -1.566406 0.34375 -1.753906 0.4375 -1.921875 C 0.53125 -2.097656 0.65625 -2.25 0.8125 -2.375 C 0.96875 -2.5 1.144531 -2.597656 1.34375 -2.671875 C 1.550781 -2.742188 1.765625 -2.78125 1.984375 -2.78125 C 2.304688 -2.78125 2.582031 -2.726562 2.8125 -2.625 C 3.050781 -2.53125 3.242188 -2.398438 3.390625 -2.234375 L 2.96875 -1.921875 C 2.832031 -2.035156 2.691406 -2.125 2.546875 -2.1875 C 2.398438 -2.25 2.222656 -2.28125 2.015625 -2.28125 C 1.867188 -2.28125 1.734375 -2.257812 1.609375 -2.21875 C 1.484375 -2.175781 1.375 -2.113281 1.28125 -2.03125 C 1.1875 -1.945312 1.113281 -1.847656 1.0625 -1.734375 C 1.007812 -1.628906 0.984375 -1.515625 0.984375 -1.390625 L 0.984375 -1.34375 C 0.984375 -1.195312 1.007812 -1.070312 1.0625 -0.96875 C 1.113281 -0.863281 1.1875 -0.769531 1.28125 -0.6875 C 1.382812 -0.613281 1.5 -0.554688 1.625 -0.515625 C 1.75 -0.472656 1.878906 -0.453125 2.015625 -0.453125 C 2.222656 -0.453125 2.398438 -0.476562 2.546875 -0.53125 C 2.691406 -0.582031 2.835938 -0.664062 2.984375 -0.78125 Z M 3.375 -0.46875 "/></g></g></g><g fill="#eff6ff" fill-opacity="1"><g transform="translate(69.528441, 32.055815)"><g><path d="M 0.953125 -1.25 L 0.953125 -1.234375 C 0.953125 -1.117188 0.976562 -1.007812 1.03125 -0.90625 C 1.082031 -0.8125 1.15625 -0.726562 1.25 -0.65625 C 1.34375 -0.582031 1.453125 -0.523438 1.578125 -0.484375 C 1.710938 -0.441406 1.851562 -0.421875 2 -0.421875 C 2.125 -0.421875 2.234375 -0.425781 2.328125 -0.4375 C 2.429688 -0.457031 2.523438 -0.484375 2.609375 -0.515625 C 2.691406 -0.546875 2.769531 -0.585938 2.84375 -0.640625 C 2.925781 -0.691406 3.007812 -0.75 3.09375 -0.8125 L 3.4375 -0.5 C 3.238281 -0.3125 3.023438 -0.171875 2.796875 -0.078125 C 2.566406 0.00390625 2.28125 0.046875 1.9375 0.046875 C 1.707031 0.046875 1.492188 0.015625 1.296875 -0.046875 C 1.097656 -0.117188 0.921875 -0.210938 0.765625 -0.328125 C 0.617188 -0.441406 0.503906 -0.582031 0.421875 -0.75 C 0.335938 -0.914062 0.296875 -1.101562 0.296875 -1.3125 L 0.296875 -1.359375 C 0.296875 -1.546875 0.332031 -1.722656 0.40625 -1.890625 C 0.476562 -2.066406 0.582031 -2.21875 0.71875 -2.34375 C 0.863281 -2.476562 1.035156 -2.582031 1.234375 -2.65625 C 1.429688 -2.738281 1.648438 -2.78125 1.890625 -2.78125 C 2.148438 -2.78125 2.378906 -2.738281 2.578125 -2.65625 C 2.773438 -2.582031 2.941406 -2.476562 3.078125 -2.34375 C 3.222656 -2.21875 3.332031 -2.066406 3.40625 -1.890625 C 3.476562 -1.722656 3.515625 -1.539062 3.515625 -1.34375 L 3.515625 -1.25 Z M 2.859375 -1.625 C 2.859375 -1.695312 2.832031 -1.773438 2.78125 -1.859375 C 2.738281 -1.941406 2.675781 -2.015625 2.59375 -2.078125 C 2.507812 -2.148438 2.40625 -2.207031 2.28125 -2.25 C 2.164062 -2.289062 2.039062 -2.3125 1.90625 -2.3125 C 1.769531 -2.3125 1.644531 -2.289062 1.53125 -2.25 C 1.414062 -2.21875 1.316406 -2.164062 1.234375 -2.09375 C 1.148438 -2.03125 1.085938 -1.957031 1.046875 -1.875 C 1.003906 -1.800781 0.984375 -1.71875 0.984375 -1.625 L 0.984375 -1.609375 L 2.859375 -1.609375 Z M 2.859375 -1.625 "/></g></g></g></g></g></g></svg>